PathFileType	4	(X/Y/Z)	pose_F01_0-96.trc
DataRate	CameraRate	NumFrames	NumMarkers	Units	OrigDataRate	OrigDataStartFrame	OrigNumFrames
30	30	6	21	m	30	48	96
Frame#	Time	CHip			RHip			RKnee			RAnkle			RBigToe			RSmallToe			RHeel			LHip			LKnee			LAnkle			LBigToe			LSmallToe			LHeel			Neck			Nose			RShoulder			RElbow			RWrist			LShoulder			LElbow			LWrist			
		X1	Y1	Z1	X2	Y2	Z2	X3	Y3	Z3	X4	Y4	Z4	X5	Y5	Z5	X6	Y6	Z6	X7	Y7	Z7	X8	Y8	Z8	X9	Y9	Z9	X10	Y10	Z10	X11	Y11	Z11	X12	Y12	Z12	X13	Y13	Z13	X14	Y14	Z14	X15	Y15	Z15	X16	Y16	Z16	X17	Y17	Z17	X18	Y18	Z18	X19	Y19	Z19	X20	Y20	Z20	X21	Y21	Z21	
48	1.6	-0.1671058659418735	1.8864582520650677	-0.6075680224681621	-0.17748142959340615	1.882386628555807	-0.5447129472819494	-0.16971509152789319	1.74890950915259	-0.5347349022670277	-0.16724953628267322	1.6097539679490018	-0.5149722762088389	-0.19848158735606555	1.5738572613126032	-0.4723242109980656	-0.19290355493565484	1.5804046900230782	-0.4476381169002098	-0.16363204979069643	1.5968754235472353	-0.5259557665178918	-0.15060673749548764	1.891089034557933	-0.6715226325810378	-0.14751257692004074	1.748524595386237	-0.6656916276143099	-0.14402173012030342	1.6086825313370439	-0.6561953711064685	-0.16997447266226587	1.5658688461049852	-0.6454227848123308	-0.15916872962167897	1.5723698411390923	-0.6779327467443507	-0.13934705491684543	1.5949057834917786	-0.6465685210649783	-0.1554579085305475	2.0453339907380417	-0.6265310195050546	-0.1777267154022159	2.1109911818414684	-0.614650600884543	-0.17368417665392158	2.0401952847692786	-0.5364545770239583	-0.20081842314531628	1.9703576489130004	-0.439023710968959	-0.24063068547827335	1.916226751752062	-0.3290973380593202	-0.13540326337556766	2.0533943263260324	-0.7194136116581655	-0.11553236431809863	1.9906152879438872	-0.7957757052611313	-0.1031428629294174	1.9350095801785785	-0.8764387282771122
49	1.6333333333333333	-0.16474884124227163	1.884993688961768	-0.6094055360675344	-0.17704161513810804	1.883110331272337	-0.5446544060625519	-0.16932694146059238	1.751407243485832	-0.5354118637081643	-0.16741397710510245	1.611229439233253	-0.5148711965299884	-0.19857641181785307	1.5743711393974356	-0.4724286345291277	-0.19397736500680632	1.5807369022763123	-0.4508493447349675	-0.16354002402920503	1.599605031971263	-0.5264115632206138	-0.1489776036658401	1.88957236082726	-0.6765052144191722	-0.1469406099798315	1.7497215162937259	-0.6663736267221487	-0.14397596695961845	1.6087936536441991	-0.656253253166838	-0.16980004295326093	1.567802684854922	-0.6459375743700202	-0.15715171009573067	1.5732400887385707	-0.6801616060011887	-0.13723249388366082	1.5952153102657067	-0.648839492616706	-0.15547923272173275	2.0453198087221023	-0.6264838090063084	-0.17770196592187168	2.1110669796591086	-0.6146980238285876	-0.1728339708824562	2.040074232254471	-0.5334792910058261	-0.2020719766401441	1.96699088976174	-0.44211376649280687	-0.238544221356981	1.9030811402713117	-0.3345406296235874	-0.1354212795634971	2.0532469767226282	-0.7193907430418814	-0.11537765953909515	1.9824738472026893	-0.7924789399781706	-0.11172437688879759	1.9155563866411884	-0.8560633828172516
50	1.6666666666666667	-0.16503358993257022	1.8825637580253918	-0.6091388419541719	-0.17730477840744374	1.8794592754910502	-0.5440516046817689	-0.16991160987111842	1.7477094825171233	-0.5343367439528267	-0.16749122380488923	1.6085300729601033	-0.5144541220987069	-0.19732854345554565	1.5729919845422182	-0.46931473433915605	-0.1907290312289307	1.579080635077121	-0.44996105010387377	-0.16363634203881294	1.5968430831178178	-0.5259696349625339	-0.14920103551625188	1.8871199292746754	-0.6763267671482924	-0.14529658350894634	1.7446102418416085	-0.6675094929021125	-0.144033596482415	1.6060102066429707	-0.6558832259449541	-0.17094934132150297	1.566226604215152	-0.6486100230961777	-0.16026107145357138	1.5702973871222616	-0.6807715262722369	-0.137356965925681	1.5956381904763628	-0.6488685350655607	-0.15543599676528325	2.0453293771980094	-0.6264926661254296	-0.1777431699028478	2.111101367420581	-0.6147061305903111	-0.17277898380912596	2.0402263262040177	-0.5334213927326623	-0.19334068518528874	1.9652390719654766	-0.45610410036646276	-0.2249824978126712	1.9018125251443796	-0.36433975092400167	-0.1355102858190494	2.0520308584823908	-0.7195775604848521	-0.11877821423257387	1.9746052400762568	-0.7810560692968936	-1.2390429007381152	1.8316588054689704	0.3015475655050678
51	1.7	-0.1672639672612477	1.8850638050230268	-0.6073656634830159	-0.17945563040498347	1.882234711898954	-0.5423851866774599	-0.1719029781463329	1.747671583132492	-0.5321411761925244	-0.16741988152509302	1.6112055411799457	-0.51490645967738	-0.19860996841602782	1.574909294753966	-0.4724516606806612	-0.19214137091174713	1.5815530000054814	-0.45304443588266113	-0.16373473910914688	1.598062384274542	-0.5259303997828809	-0.15146086705246353	1.8885092134735122	-0.674191547702954	-0.1456321272734349	1.7448715000423873	-0.6671828156321021	-0.14424357529721793	1.607343221089044	-0.6556834983390288	-0.1708917440388032	1.566214196160132	-0.6485626236036325	-0.1570987437088994	1.5728782934559502	-0.680277932389697	-0.13941539414115856	1.5950135346706042	-0.6465584842749637	-0.15749844058195006	2.045266412956172	-0.6242428188461114	-0.1776872237947479	2.1122072233726508	-0.6144962992847997	-0.172764409490832	2.0399224678626147	-0.5328025511957664	-0.18833898444224637	1.9652792852941776	-0.4663110585043759	-0.21219332500824503	1.9007184905098289	-0.3976115217171918	-0.13553286683616897	2.0508716497533226	-0.7190094648326973	-0.12251384406491746	1.9729861304710665	-0.7728663411012029	-0.12967211517397614	1.897222677553562	-0.8023675098399742
52	1.7333333333333334	-0.16687334341067062	1.882213037224031	-0.6066738523806344	-0.1784209172344221	1.8792817043923218	-0.538636674347383	-0.17188697756426996	1.7476033156758053	-0.5320644552450149	-0.1672264033995159	1.6098557985020086	-0.5150766865633438	-0.19832620589053093	1.573104009087529	-0.47266237001127115	-0.1918378513877075	1.5797327507452974	-0.4533084819319542	-0.1637589591158776	1.5980653647156886	-0.5259089941087703	-0.15128155562500573	1.8856489496298203	-0.6738024167949374	-0.14740434309704933	1.7443585912567598	-0.6652734835268981	-0.1440157570283707	1.6086340704067772	-0.6561606465493077	-0.17089426160647267	1.5660391986625508	-0.6485637262161451	-0.15958732393338976	1.571549109190079	-0.677465746021986	-0.1387458464296116	1.596356708812903	-0.6432188778348015	-0.1575286811652263	2.0439428017254624	-0.6237255752324561	-0.17768630677178257	2.1122271805850015	-0.6144880963795786	-0.17472585232195975	2.0397934779840594	-0.5304986202703266	-0.17832478842214425	1.9593232250963328	-0.4850310373491327	-0.20483868975808106	1.8941704290909687	-0.4318754110714345	-0.13552286390755486	2.0508387948235227	-0.7191549928792084	-0.12346548612719101	1.96786611321358	-0.7635139508086709	-0.13566848183378127	1.8936468862221816	-0.7799291435119609
53	1.7666666666666666	-0.16796259963386126	1.8811841432355694	-0.609687677072924	-0.17940558771466708	1.8793593513632787	-0.5419149852884081	-0.16990047292350358	1.7477628137417482	-0.5343393513884763	-0.16747457671513608	1.611282901196477	-0.5148221828034519	-0.19665331487555646	1.5749052981320053	-0.4744969243122589	-0.19112803226822087	1.5814280896368762	-0.44973653737732555	-0.16381146018285875	1.5981145139379662	-0.5258013266956993	-0.15153020034078837	1.88460689260911	-0.673559872554682	-0.14735276063227123	1.7470957387549269	-0.6656041852460965	-0.1439466692814478	1.608668113143368	-0.6562952498535339	-0.17094714852325454	1.5663327001382377	-0.6485375496181829	-0.15913669566886698	1.571672617466156	-0.6781813396173327	-0.137196243366164	1.5949987878147431	-0.6488321772380354	-0.1575760864162013	2.045263033825337	-0.6241235937577114	-0.17773017465267107	2.112270166381855	-0.6144665209997113	-0.17481760471241933	2.0411738587199624	-0.5309960803122591	-0.17533709220486424	1.9596312612827493	-0.4928243277110411	-0.19256505267771382	1.8847739594504618	-0.4613318357390863	-0.13768532577943995	2.051878959545064	-0.7172047961900954	-0.125631215074964	1.9686857031802947	-0.7498755825358514	-0.13937840722635522	1.8900836541758506	-0.7481791532349736
